<?xml version="1.0" standalone="no"?>
<!DOCTYPE svg PUBLIC "-//W3C//DTD SVG 20010904//EN"
 "http://www.w3.org/TR/2001/REC-SVG-20010904/DTD/svg10.dtd">
<svg version="1.0" xmlns="http://www.w3.org/2000/svg"
 width="730.000000pt" height="730.000000pt" viewBox="0 0 730.000000 730.000000"
 preserveAspectRatio="xMidYMid meet">
<metadata>
Created by potrace 1.11, written by Peter Selinger 2001-2013
</metadata>
<g transform="translate(0.000000,730.000000) scale(0.100000,-0.100000)"
fill="#000000" stroke="none">
<path d="M350 5128 c0 -2 10 -31 22 -63 20 -51 23 -79 23 -190 0 -177 -21
-244 -180 -590 -166 -360 -205 -486 -210 -690 -4 -118 -2 -140 24 -240 60
-231 169 -425 344 -612 33 -35 61 -62 63 -60 3 2 -10 37 -27 78 -88 212 -135
459 -126 659 9 192 23 243 192 710 83 227 107 338 109 488 1 111 1 113 14 70
8 -23 16 -90 19 -148 7 -144 -11 -242 -103 -542 -94 -311 -104 -355 -111 -505
-7 -148 7 -273 52 -448 44 -174 92 -302 179 -470 77 -149 206 -363 236 -390
16 -15 18 -14 24 22 13 72 38 134 72 179 33 43 34 46 33 142 l-1 97 -25 -55
c-14 -30 -39 -113 -57 -185 l-33 -129 -36 64 c-57 103 -76 152 -89 233 -22
145 20 267 177 516 l65 103 0 717 0 717 -66 83 c-80 101 -201 222 -291 291
-78 59 -293 167 -293 148z"/>
<path d="M2493 4779 c-209 -35 -350 -169 -384 -366 -32 -182 36 -321 191 -392
37 -17 143 -50 236 -72 336 -80 421 -116 456 -196 30 -67 23 -175 -15 -231
-83 -127 -382 -175 -552 -89 -107 54 -157 128 -180 270 l-6 37 -94 0 c-109 0
-103 8 -85 -110 31 -198 186 -350 402 -394 268 -55 575 34 683 197 86 130 86
360 0 473 -80 105 -144 136 -421 200 -238 54 -338 89 -378 128 -99 100 -49
285 93 349 86 38 278 37 365 -2 83 -36 143 -112 161 -201 13 -70 7 -66 110
-66 108 -1 101 -8 84 96 -11 72 -37 136 -76 193 -29 41 -133 114 -203 141
-105 41 -264 55 -387 35z"/>
<path d="M3540 4005 l0 -746 103 3 102 3 1 743 1 742 -104 0 -103 0 0 -745z"/>
<path d="M4230 4019 c-151 -402 -276 -737 -278 -745 -3 -12 13 -14 100 -12
l103 3 80 222 80 223 291 0 292 0 40 -112 c22 -62 57 -164 78 -225 l39 -113
111 0 112 0 -38 103 c-20 56 -142 391 -270 745 l-233 642 -116 0 -116 0 -275
-731z m499 178 c61 -175 111 -320 111 -323 0 -2 -103 -4 -230 -4 -129 0 -230
4 -230 9 0 5 50 145 110 312 61 167 113 310 115 318 3 8 7 12 9 10 2 -2 54
-147 115 -322z"/>
<path d="M5563 4000 l0 -750 89 0 88 0 0 593 0 592 55 -112 c29 -62 55 -113
57 -113 2 0 2 89 1 198 -2 194 -2 198 -32 267 l-30 70 -114 3 -113 3 -1 -751z"/>
<path d="M6640 4120 c-151 -346 -278 -630 -281 -630 -3 0 -39 70 -79 155 -41
85 -76 153 -78 150 -2 -2 -4 -84 -3 -182 l1 -179 38 -90 38 -89 75 -3 74 -3
274 591 c151 324 277 586 280 581 3 -5 5 -88 4 -185 l-1 -176 46 39 c26 21 62
46 80 55 l32 17 0 289 0 290 -113 0 -113 0 -274 -630z"/>
<path d="M1060 3886 c0 -547 2 -618 15 -600 21 28 22 1156 0 1194 -13 22 -14
-52 -15 -594z"/>
<path d="M5910 4219 c1 -146 4 -188 15 -203 13 -18 15 1 15 171 0 157 -3 193
-15 203 -13 11 -15 -9 -15 -171z"/>
<path d="M1152 3875 l0 -440 19 40 c18 37 19 63 16 405 -2 317 -4 370 -19 400
-16 33 -16 13 -16 -405z"/>
<path d="M1251 3845 c0 -380 0 -380 19 -345 18 32 19 58 19 340 0 275 -2 309
-19 345 -18 40 -19 38 -19 -340z"/>
<path d="M6035 3962 c0 -160 3 -192 17 -213 17 -24 17 -23 18 41 6 252 -3 360
-29 360 -4 0 -7 -85 -6 -188z"/>
<path d="M1360 3810 l0 -275 20 30 c18 28 20 47 20 242 0 195 -2 215 -20 245
l-20 33 0 -275z"/>
<path d="M6942 4003 c38 -41 169 -25 143 17 -4 6 -38 9 -85 8 l-79 -3 21 -22z"/>
<path d="M7124 4019 c-13 -21 19 -39 70 -39 42 0 57 5 74 23 l22 24 -80 0
c-44 1 -83 -3 -86 -8z"/>
<path d="M6912 3904 l3 -109 79 -3 c94 -3 114 1 96 23 -18 22 -127 20 -154 -2
-21 -18 -21 -18 -3 3 26 32 24 154 -3 179 l-21 19 3 -110z"/>
<path d="M7278 3993 c-14 -15 -18 -37 -18 -88 0 -51 5 -74 18 -89 17 -21 17
-21 -4 -3 -26 21 -136 24 -153 4 -18 -22 -2 -27 86 -27 60 0 85 4 89 13 2 7 3
57 2 111 -3 94 -4 97 -20 79z"/>
<path d="M7093 3988 c-5 -7 -10 -45 -11 -85 -1 -56 2 -73 14 -77 28 -11 34 4
34 78 0 50 -4 77 -14 85 -10 8 -16 8 -23 -1z"/>
<path d="M1470 3785 c0 -148 2 -166 15 -155 12 10 15 40 15 155 0 115 -3 145
-15 155 -13 11 -15 -7 -15 -155z"/>
<path d="M1570 3787 c0 -109 1 -116 18 -106 14 9 17 24 15 101 -1 67 -6 95
-17 107 -15 14 -16 4 -16 -102z"/>
<path d="M1648 3853 c-9 -17 -3 -133 7 -135 13 -4 19 122 7 134 -6 6 -12 6
-14 1z"/>
<path d="M1713 3785 c0 -27 2 -38 4 -22 2 15 2 37 0 50 -2 12 -4 0 -4 -28z"/>
<path d="M6935 3650 c14 -16 31 -20 80 -20 40 0 67 5 74 13 18 22 2 27 -87 27
-84 0 -85 0 -67 -20z"/>
<path d="M7122 3663 c-10 -4 -10 -8 -1 -19 8 -9 32 -14 74 -14 49 0 66 4 80
20 18 20 17 20 -61 19 -43 0 -85 -3 -92 -6z"/>
<path d="M7103 3478 c-16 -19 -20 -37 -21 -93 0 -76 11 -103 34 -84 17 14 20
148 4 167 -7 9 -7 9 2 2 15 -12 138 -13 138 -1 0 5 8 12 17 15 16 6 16 6 0
-12 -24 -27 -24 -147 1 -176 17 -21 17 -21 -4 -3 -27 22 -136 24 -154 2 -18
-22 2 -26 96 -23 l79 3 0 110 0 110 -85 3 c-79 2 -88 1 -107 -20z"/>
<path d="M6912 3384 l3 -109 79 -3 c94 -3 114 1 96 23 -18 22 -127 20 -154 -2
-21 -18 -21 -18 -3 3 26 32 24 154 -3 179 l-21 19 3 -110z"/>
<path d="M1393 3227 c-21 -9 -23 -17 -23 -94 0 -45 3 -83 8 -83 4 0 15 7 25
14 15 12 17 26 15 93 -3 79 -3 80 -25 70z"/>
<path d="M1477 3213 c-4 -3 -7 -26 -7 -49 0 -33 3 -42 14 -38 8 3 14 22 14 50
1 41 -6 53 -21 37z"/>
<path d="M1283 3190 c-21 -9 -23 -16 -23 -95 0 -47 3 -85 8 -85 28 1 36 22 36
104 1 47 1 86 1 85 0 0 -10 -4 -22 -9z"/>
<path d="M1163 3133 c-15 -5 -19 -193 -5 -193 24 0 32 30 32 112 0 48 -3 88
-7 87 -5 0 -14 -3 -20 -6z"/>
<path d="M3523 3068 c4 -12 1 -29 -6 -37 -10 -11 -9 -13 3 -9 18 6 27 68 9 68
-7 0 -9 -9 -6 -22z"/>
<path d="M1073 3069 c-9 -9 -13 -47 -13 -118 0 -95 2 -104 15 -90 13 12 15 36
13 118 -2 82 -5 100 -15 90z"/>
<path d="M2145 3052 c-45 -9 -71 -57 -42 -80 7 -6 38 -20 69 -32 77 -29 90
-68 30 -91 -41 -16 -82 -1 -98 34 -11 26 -13 28 -14 10 0 -43 48 -69 106 -59
68 13 71 83 4 110 -22 9 -46 16 -54 16 -13 0 -46 31 -46 43 0 16 35 37 63 37
37 0 49 -7 65 -35 9 -15 11 -16 12 -4 0 32 -52 60 -95 51z"/>
<path d="M2720 3032 c6 -13 14 -21 18 -18 3 4 -2 14 -12 24 -18 16 -18 16 -6
-6z"/>
<path d="M3459 3008 c-3 -127 -5 -140 -24 -154 -26 -20 -49 -17 -70 6 -22 24
-25 81 -6 104 16 19 62 21 79 4 9 -9 12 -9 12 -1 0 17 -16 24 -51 25 -39 1
-68 -33 -69 -80 0 -61 77 -107 111 -66 12 14 14 14 20 -3 4 -10 8 33 8 95 1
61 -1 112 -4 112 -3 0 -5 -19 -6 -42z"/>
<path d="M3609 3038 c-4 -98 -2 -201 4 -205 4 -2 7 46 7 106 0 61 -2 111 -5
111 -3 0 -5 -6 -6 -12z"/>
<path d="M3854 3021 c-5 -23 -13 -31 -33 -34 l-26 -4 27 -2 c27 -1 27 -2 31
-78 l3 -78 2 77 c2 75 2 77 30 81 l27 4 -28 2 c-23 1 -28 5 -25 23 2 14 13 25
28 29 l25 7 -28 1 c-23 1 -28 -4 -33 -28z"/>
<path d="M5253 2943 c-24 -59 -40 -109 -38 -111 3 -3 12 11 20 31 15 36 16 37
70 37 54 0 55 -1 70 -37 8 -20 18 -34 20 -31 7 7 -78 211 -90 215 -5 1 -29
-45 -52 -104z m97 -25 c0 -4 -20 -8 -45 -8 -25 0 -45 3 -45 7 0 4 10 33 22 64
l22 58 23 -56 c13 -31 23 -60 23 -65z"/>
<path d="M5422 2938 l2 -113 5 105 6 105 40 -94 c22 -52 45 -96 51 -98 6 -2
29 38 52 89 l41 93 1 -98 c0 -54 4 -96 8 -93 12 7 8 209 -4 213 -5 2 -28 -39
-50 -92 -21 -52 -42 -95 -45 -95 -4 0 -24 41 -46 92 -22 51 -45 94 -51 96 -9
3 -11 -27 -10 -110z"/>
<path d="M6271 3028 c-16 -40 -49 -122 -65 -160 -9 -21 -13 -38 -8 -38 4 0 14
16 21 35 12 34 14 35 67 35 54 0 55 -1 70 -36 8 -20 17 -34 20 -31 7 7 -78
217 -88 217 -5 0 -12 -10 -17 -22z m48 -65 l21 -53 -51 0 c-57 0 -55 -6 -21
77 9 23 20 39 24 35 3 -4 16 -31 27 -59z"/>
<path d="M7094 2940 c0 -63 1 -89 3 -57 2 31 2 83 0 115 -2 31 -3 5 -3 -58z"/>
<path d="M2580 3017 c0 -16 -7 -27 -17 -30 -17 -4 -17 -5 0 -6 14 -1 17 -11
17 -66 0 -53 3 -66 19 -75 24 -12 31 -13 31 -1 0 5 -8 11 -18 13 -15 4 -18 16
-19 67 0 59 0 61 26 62 l26 1 -25 7 c-14 3 -26 15 -28 26 -6 30 -12 32 -12 2z"/>
<path d="M4642 3015 c4 -20 1 -25 -16 -26 -17 -1 -18 -2 -3 -6 14 -4 17 -16
17 -68 0 -52 4 -66 18 -74 11 -6 24 -6 33 0 11 7 9 9 -8 9 -13 0 -23 6 -24 15
-6 93 -3 109 22 116 23 7 23 7 2 8 -18 1 -23 7 -23 26 0 14 -5 25 -11 25 -7 0
-9 -10 -7 -25z"/>
<path d="M4730 3030 c0 -5 5 -10 10 -10 6 0 10 5 10 10 0 6 -4 10 -10 10 -5 0
-10 -4 -10 -10z"/>
<path d="M6031 3018 c-1 -19 -7 -28 -23 -31 l-23 -4 23 -2 c21 -1 22 -5 22
-71 0 -38 3 -70 8 -71 4 0 15 -2 25 -4 9 -2 17 1 17 6 0 5 -9 9 -20 9 -18 0
-20 7 -20 64 0 59 2 65 23 69 22 4 22 4 0 6 -16 1 -23 9 -26 29 l-4 27 -2 -27z"/>
<path d="M6690 3030 c0 -5 5 -10 10 -10 6 0 10 5 10 10 0 6 -4 10 -10 10 -5 0
-10 -4 -10 -10z"/>
<path d="M2427 2979 c-30 -24 -14 -48 42 -67 47 -16 60 -34 41 -57 -18 -22
-56 -18 -80 7 -11 12 -20 17 -20 11 0 -21 31 -43 59 -43 71 0 84 66 17 88 -54
17 -69 31 -55 48 15 19 68 18 75 -1 4 -8 10 -15 15 -15 6 0 6 8 0 19 -15 26
-67 32 -94 10z"/>
<path d="M2710 2992 c-34 -11 -50 -35 -50 -79 0 -71 54 -105 108 -67 12 8 22
23 22 32 -1 14 -2 14 -12 -3 -23 -40 -57 -46 -88 -15 -38 38 -27 50 46 50 l66
0 -7 27 c-4 16 -11 33 -16 39 -11 14 -49 22 -69 16z m57 -24 c31 -40 25 -48
-37 -48 -64 0 -73 9 -43 42 18 21 66 24 80 6z"/>
<path d="M2873 2992 c-13 -2 -23 -9 -23 -15 0 -7 -4 -6 -10 3 -7 10 -9 -12 -8
-70 2 -79 2 -80 5 -20 4 71 14 90 49 90 31 0 38 -14 45 -90 l6 -65 1 66 c2 70
13 89 49 89 29 0 35 -15 37 -84 0 -30 5 -58 10 -63 4 -4 7 24 4 64 -2 40 -9
78 -15 84 -18 18 -65 14 -80 -7 -7 -10 -13 -13 -13 -6 0 16 -30 29 -57 24z"/>
<path d="M3120 2992 c-34 -11 -50 -35 -50 -79 0 -71 54 -105 108 -67 12 8 22
22 22 31 0 11 -6 8 -21 -11 -24 -31 -52 -33 -79 -6 -38 38 -27 50 46 50 l66 0
-7 27 c-4 16 -11 33 -16 39 -11 14 -49 22 -69 16z m57 -24 c31 -40 25 -48 -37
-48 -64 0 -73 9 -43 42 18 21 66 24 80 6z"/>
<path d="M3695 2984 c-14 -7 -23 -9 -20 -4 4 6 1 10 -4 10 -7 0 -11 -31 -11
-82 0 -90 11 -101 15 -14 2 64 16 86 55 86 34 0 40 -14 40 -91 0 -33 4 -58 9
-55 12 8 5 124 -9 140 -17 21 -46 25 -75 10z"/>
<path d="M3972 2989 c-46 -17 -58 -101 -19 -137 48 -45 117 -10 117 59 0 61
-45 97 -98 78z m72 -31 c22 -31 20 -74 -4 -98 -57 -57 -132 29 -84 98 10 14
26 22 44 22 18 0 34 -8 44 -22z"/>
<path d="M4141 2984 c-12 -9 -21 -11 -21 -5 0 6 -4 11 -8 11 -10 0 -9 -146 1
-156 4 -4 7 20 7 52 0 67 13 91 50 96 19 2 21 5 9 10 -9 3 -26 0 -38 -8z"/>
<path d="M4248 2986 c-20 -11 -28 -11 -32 -3 -2 7 -4 -26 -4 -73 l1 -85 7 65
c8 80 13 90 50 90 34 0 40 -13 42 -93 l1 -62 6 65 c7 76 14 90 45 90 35 0 45
-19 49 -90 3 -62 4 -62 3 10 -1 69 -3 75 -26 87 -20 10 -29 10 -47 -3 -20 -13
-26 -13 -46 0 -19 13 -26 13 -49 2z"/>
<path d="M4505 2992 c-28 -6 -45 -21 -45 -40 0 -12 4 -11 16 6 18 27 78 31 88
6 11 -28 7 -34 -23 -34 -41 0 -77 -15 -85 -36 -18 -48 35 -80 85 -51 26 14 28
14 32 -1 5 -19 10 35 8 87 -1 51 -28 73 -76 63z m65 -96 c0 -24 -36 -56 -64
-56 -22 0 -46 28 -39 46 7 19 38 33 76 33 22 1 27 -3 27 -23z"/>
<path d="M4839 2988 c-51 -17 -65 -93 -24 -133 54 -54 133 -7 119 71 -10 54
-47 78 -95 62z m65 -24 c25 -24 21 -90 -6 -108 -32 -23 -54 -20 -78 11 -22 29
-22 72 1 100 15 18 64 17 83 -3z"/>
<path d="M5001 2984 c-15 -11 -20 -11 -24 -1 -3 6 -5 -26 -5 -73 l1 -85 6 65
c7 79 14 90 51 90 37 0 44 -11 51 -90 l6 -65 1 66 c1 39 -3 71 -10 81 -19 22
-54 28 -77 12z"/>
<path d="M5715 2988 c-52 -28 -62 -92 -20 -133 55 -56 134 -5 118 78 -9 46
-61 75 -98 55z m69 -24 c37 -36 6 -124 -43 -124 -24 0 -61 45 -61 74 0 56 67
88 104 50z"/>
<path d="M5887 2985 c-19 -10 -27 -10 -31 -2 -2 7 -4 -26 -4 -73 l1 -85 6 65
c7 79 14 90 51 90 37 0 44 -11 51 -90 l6 -65 1 66 c3 89 -27 122 -81 94z"/>
<path d="M6444 2990 c-11 -4 -26 -15 -33 -24 -19 -23 -16 -84 5 -107 21 -24
71 -25 96 -2 17 15 18 15 12 -18 -11 -59 -56 -77 -95 -38 -11 11 -23 18 -26
16 -11 -11 39 -47 65 -47 35 0 48 9 61 43 14 37 14 177 0 177 -5 0 -7 -4 -4
-10 3 -5 2 -10 -4 -10 -5 0 -12 4 -15 9 -9 13 -40 19 -62 11z m64 -22 c20 -25
18 -80 -4 -102 -20 -21 -53 -20 -76 1 -22 20 -24 76 -2 97 19 19 67 21 82 4z"/>
<path d="M6612 2984 c-12 -8 -22 -10 -22 -5 0 6 -4 11 -8 11 -10 0 -9 -146 1
-156 4 -4 7 18 7 50 0 70 12 96 46 96 14 0 22 4 19 10 -8 14 -17 13 -43 -6z"/>
<path d="M6773 2974 c-47 -47 -20 -144 40 -144 29 0 67 27 67 47 0 11 -6 8
-21 -11 -24 -31 -52 -33 -79 -6 -26 26 -26 81 -2 103 26 24 68 21 86 -5 9 -12
16 -18 16 -12 0 20 -25 42 -54 47 -22 4 -35 -1 -53 -19z"/>
<path d="M6964 2992 c-81 -12 -70 -162 12 -162 36 0 74 42 74 82 0 57 -34 89
-86 80z m60 -34 c22 -31 20 -68 -6 -95 -26 -28 -52 -29 -78 -3 -24 24 -26 77
-3 102 23 25 68 23 87 -4z"/>
<path d="M7182 2989 c-27 -10 -42 -39 -42 -82 0 -62 75 -102 112 -59 28 32 31
47 4 20 -32 -33 -59 -35 -86 -8 -38 38 -27 50 45 50 56 0 65 3 65 18 0 45 -52
78 -98 61z m72 -31 c9 -12 16 -26 16 -30 0 -5 -27 -8 -60 -8 -33 0 -60 3 -60
8 0 23 34 52 60 52 18 0 34 -8 44 -22z"/>
<path d="M2279 2943 c10 -27 25 -60 32 -75 9 -22 10 -34 0 -54 -13 -30 -8 -46
7 -17 23 46 74 184 70 189 -3 2 -16 -21 -28 -53 -13 -32 -26 -61 -29 -65 -4
-4 -18 21 -31 57 -13 36 -28 65 -32 65 -4 0 1 -21 11 -47z"/>
<path d="M4739 2953 c-2 -90 -1 -114 5 -120 3 -4 6 30 6 75 0 81 -9 118 -11
45z"/>
<path d="M6691 2911 c-1 -46 1 -82 5 -79 8 9 10 125 2 145 -3 10 -7 -20 -7
-66z"/>
<path d="M963 2920 c-43 -87 -73 -207 -73 -294 l0 -71 56 113 55 113 -3 102
-3 102 -32 -65z"/>
<path d="M1277 2959 c-15 -9 -17 -31 -17 -218 l0 -208 23 4 22 4 -1 209 c0
115 -2 212 -5 214 -2 2 -12 0 -22 -5z"/>
<path d="M1167 2872 c-14 -16 -17 -45 -17 -190 0 -165 1 -172 20 -172 19 0 20
7 20 190 0 105 -2 190 -3 190 -2 0 -11 -8 -20 -18z"/>
<path d="M1072 2759 c-18 -34 -13 -292 6 -280 9 6 12 44 10 156 -3 127 -5 145
-16 124z"/>
</g>
</svg>
